<?xml version="1.0" encoding="UTF-8"?>
<!DOCTYPE svg PUBLIC "-//W3C//DTD SVG 1.1//EN" "http://www.w3.org/Graphics/SVG/1.1/DTD/svg11.dtd">
<!-- Creator: CorelDRAW 2021 (64-Bit) -->
<svg xmlns="http://www.w3.org/2000/svg" xml:space="preserve" width="381mm" height="381mm"
    version="1.1"
    style="shape-rendering:geometricPrecision; text-rendering:geometricPrecision; image-rendering:optimizeQuality; fill-rule:evenodd; clip-rule:evenodd"
    viewBox="0 0 38100 38100"
    xmlns:xlink="http://www.w3.org/1999/xlink"
    xmlns:xodm="http://www.corel.com/coreldraw/odm/2003">
 <defs>
  <style type="text/css">
   <![CDATA[
    .fil3 {fill:black;fill-rule:nonzero}
    .fil1 {fill:#082E4E;fill-rule:nonzero}
    .fil2 {fill:#109FDC;fill-rule:nonzero}
    .fil0 {fill:#7B8CA0;fill-rule:nonzero}
   ]]>
  </style>
 </defs>
 <g id="Capa_x0020_1">
  <metadata id="CorelCorpID_0Corel-Layer"/>
  <g id="_2257754542656">
   <path class="fil0" d="M23243.35 13196.39c4122.36,3673.98 6608.14,6794.44 9357.27,11357.23 215.1,-373.64 401.24,-730.75 552.22,-1034.09 151.67,-303.35 279.2,-558.41 284.71,-566.7 60,-102.75 4007.45,-729.18 4627.98,-1245.05l34.47 -5668.28c-1888.54,-2222.45 -14861.05,-2847.06 -14856.65,-2843.11zm-7514.51 24007.1c166.15,294.39 321.25,448.81 451.56,532.92 333.08,214.55 4895.9,256.74 5529.02,87.55 172.35,-45.5 322.65,-154.42 450.18,-326.77 444.15,-600.88 1023.97,-4040.96 1070.63,-4053.7 768.85,-230.87 2552.37,-1272.57 2894.14,-1323.65 141.72,-21.11 3381.42,1982.04 4185.36,1982.04 423.5,0 3381.28,-3353.75 3357.4,-3550.44 -184.87,-1524.28 -6290.69,-10686.06 -7556.56,-12182.46 -1728.81,10407.23 -8252.81,16672.04 -10381.73,18834.51z"/>
   <path class="fil1" d="M11979.99 17267.12c2893.65,-8660.85 13601.5,-5699.7 20260.08,-4918 224.01,26.3 1388.98,-3484.79 1948.94,-4427.35 27.57,-47.57 28.96,-140.65 2.75,-206.82 -121.8,-307.88 -3476.22,-3716.7 -3830.32,-3780.02 -879.87,-153.36 -3128.41,1371.36 -4015.78,1871.75 -255.82,144.07 -2695.52,-1247.57 -3102.31,-1356.07 -137.21,-769.37 -256.47,-1349.15 -352.97,-1785.54 -96.52,-436.4 -202.5,-808.76 -224.76,-843.15 -4941.27,2914.83 -10655.94,9783.27 -10685.63,15445.2zm-11867.52 -1141.46c-183.38,586.29 -179.67,5499.55 294.36,5805.49 1069.92,690.11 13571.66,2490.57 13650.2,2260.53 -551.66,-395.96 -1276.79,-1002 -1482.21,-1174.73 -350.9,-295.07 -1041,-872.79 -1533.93,-1282.98 -855.26,-712.88 -7163.08,-7020.68 -7307.67,-7002.27 -525.55,57.12 -3421.21,756.05 -3620.75,1393.96z"/>
   <path class="fil2" d="M22665.62 1821.92c-11.51,-46.84 -437.64,-1181.44 -870.03,-1467.05 -302.73,-200.76 -4874.72,-309.92 -5480.76,69.63 -951.92,592.77 -1164.03,3542.21 -1584.24,4067.48 -83.06,106.22 -2325.3,1035.52 -2674.21,1223.69 -185.45,100.67 -248.18,106.18 -376.4,34.48 -665,-372.95 -3463.63,-2149.15 -4206.74,-1712.48 -351.37,208.04 -3015.49,2978.57 -3291.92,3481.49 -86.86,159.93 -89.62,237.83 -17.23,494.3 192.51,677.94 1705.58,3544.16 1705.58,3699.33 0.66,62.18 -759.47,2775 -947.23,2840.35 -284.71,94.86 -863.51,137.97 -1189.22,178.56 895.87,1060.73 9668.64,9459.98 10323.81,9459.98 -7211.6,-10365.19 6416,-20987.88 8608.59,-22369.76z"/>
   <path class="fil3" d="M24478.06 23778.06c-4435.74,5363.57 -17931.63,823.07 -18604.25,1430.5 -47.55,44.4 228.21,760.03 272.32,880.37 -771.8,907.83 -1815.56,2628.29 -2208.85,3738.63 -67.56,190.97 -68.26,284.05 -0.68,448.12 225.08,554.45 3495.27,3826.2 3760.69,3826.2 596.13,0 3792.62,-1645.59 3973.72,-2016.51 13.76,-28.24 2805.67,1243.7 3023.72,1291.24 54.91,12.98 843.09,3350.72 1034.11,3826.88 1070.64,-1056.86 1827.6,-1893.1 2372.93,-2481.15 545.32,-588.06 1244.36,-1378.81 1553.23,-1757.99 308.84,-379.17 810.74,-1030.65 1114.08,-1447.74 304.01,-417.09 785.22,-1130.63 1069.95,-1585.63 284.73,-455 637.7,-1044.45 784.54,-1309.87 146.84,-265.42 428.81,-807.97 627.36,-1206.46 198.55,-398.48 443.27,-910.02 543.94,-1137.51 100.66,-227.51 261.27,-614.95 356.43,-861.77 95.13,-246.79 306.08,-827.96 468.77,-1292.61 162.71,-464.67 263.92,-861.97 257.72,-861.97 -6.21,0 -171.54,242.19 -399.73,517.27z"/>
  </g>
 </g>
</svg>